<?xml version="1.0" encoding="utf-8"?>
<!-- Generator: Adobe Illustrator 23.0.3, SVG Export Plug-In . SVG Version: 6.00 Build 0)  -->
<svg version="1.1" xmlns="http://www.w3.org/2000/svg" xmlns:xlink="http://www.w3.org/1999/xlink" x="0px" y="0px"
	 viewBox="0 0 256 256" style="enable-background:new 0 0 256 256;" xml:space="preserve">
<style type="text/css">
	.st0{display:none;}
	.st1{display:inline;fill:#FFE1E1;}
	.st2{fill:#FF7F4D;}
	.st3{fill:#4A4E59;}
	.st4{fill:#DCEFF9;}
	.st5{fill:#C3DEEA;}
	.st6{fill:#F9F9F9;}
	.st7{fill:#EA5066;}
	.st8{fill:#EDEDED;}
	.st9{fill:#FFBB33;}
	.st10{fill:#7DC1F4;}
	.st11{fill:#BED366;}
	.st12{fill:#FFFFFF;}
	.st13{fill:#FFB948;}
	.st14{fill:#BEC3CE;}
	.st15{fill:#FF9D33;}
	.st16{fill:#C1CFEA;}
	.st17{fill:#A6E1FF;}
	.st18{fill:#EFA31D;}
	.st19{fill:#90CEF4;}
</style>
<g id="Layer_2" class="st0">
	<rect class="st1" width="256" height="256"/>
</g>
<g id="Layer_1">
	<g>
		<g>
			<path class="st4" d="M170.13,173.62c21.61,0,39.12-17.59,39.12-39.29c0-21.7-17.51-39.29-39.12-39.29c-1.9,0-3.76,0.18-5.59,0.45
				c-5.63-18.45-22.72-31.88-42.94-31.88c-24.8,0-44.91,20.19-44.91,45.1c0,0.71,0.07,1.4,0.11,2.11
				c-16.7,0.66-30.04,14.43-30.04,31.37c0,17.36,14.01,31.43,31.3,31.43H170.13z"/>
			<path class="st5" d="M170.13,154.87H78.05c-14.03,0-25.9-9.27-29.88-22.04c-0.92,2.96-1.42,6.1-1.42,9.36
				c0,17.36,14.01,31.43,31.3,31.43h92.08c21.61,0,39.12-17.59,39.12-39.29c0-3.23-0.4-6.37-1.13-9.37
				C203.93,142.13,188.52,154.87,170.13,154.87z"/>
			<path class="st3" d="M170.13,178.62H78.05c-20.01,0-36.3-16.34-36.3-36.43c0-17.96,12.83-32.86,29.99-35.85
				c1.24-26.53,23.13-47.73,49.85-47.73c20.69,0,38.83,12.49,46.35,31.49c0.74-0.04,1.47-0.07,2.18-0.07
				c24.33,0,44.12,19.87,44.12,44.29C214.25,158.75,194.46,178.62,170.13,178.62z M121.6,68.62c-22.01,0-39.91,17.99-39.91,40.1
				c0,0.34,0.03,0.67,0.05,1c0.02,0.29,0.04,0.58,0.05,0.88c0.06,1.33-0.41,2.63-1.31,3.61c-0.9,0.98-2.15,1.56-3.48,1.61
				c-14.16,0.56-25.24,12.15-25.24,26.37c0,14.57,11.8,26.43,26.3,26.43h92.08c18.81,0,34.12-15.38,34.12-34.29
				c0-18.91-15.31-34.29-34.12-34.29c-1.46,0-3.01,0.13-4.88,0.4c-2.45,0.35-4.78-1.13-5.5-3.49
				C154.58,80.01,139.25,68.62,121.6,68.62z"/>
		</g>
		<g>
			<path class="st13" d="M106.98,224.61l10.56-26.97c0.64-1.62-0.57-3.37-2.33-3.37h-10.96c-1.75,0-2.96-1.74-2.33-3.36l16.88-43.82
				c0.37-0.96,1.3-1.59,2.33-1.59h25.62c1.96,0,3.15,2.13,2.13,3.78l-17.55,28.14c-1.03,1.65,0.17,3.78,2.13,3.78h9.86
				c2.1,0,3.26,2.41,1.95,4.03l-33.99,41.84C109.47,229.26,105.95,227.24,106.98,224.61z"/>
			<path class="st3" d="M109.36,231.76c-1.08,0-2.18-0.29-3.2-0.88c-2.71-1.58-3.81-4.72-2.66-7.63l9.87-25.23h-9.11
				c-2.07,0-3.99-1.01-5.16-2.71c-1.16-1.69-1.41-3.84-0.67-5.74l16.88-43.82c0.92-2.39,3.27-3.99,5.83-3.99h25.62
				c2.27,0,4.37,1.23,5.47,3.21c1.09,1.97,1.03,4.38-0.16,6.3l-16.33,26.18h7.58c2.44,0,4.6,1.36,5.65,3.56
				c1.04,2.18,0.74,4.71-0.79,6.58l-33.99,41.84C112.93,230.95,111.17,231.76,109.36,231.76z M106.98,224.61H107H106.98z
				 M106.09,190.51h9.12c2.07,0,4,1.02,5.17,2.73c1.16,1.7,1.4,3.85,0.65,5.76l-7.61,19.44l27.22-33.51h-7.2
				c-2.27,0-4.37-1.23-5.47-3.21c-1.09-1.97-1.03-4.38,0.16-6.3l16.33-26.18h-22.49L106.09,190.51z"/>
		</g>
	</g>
</g>
</svg>
