<?xml version="1.0" encoding="utf-8"?>
<!-- Generator: Adobe Illustrator 23.0.3, SVG Export Plug-In . SVG Version: 6.00 Build 0)  -->
<svg version="1.1" xmlns="http://www.w3.org/2000/svg" xmlns:xlink="http://www.w3.org/1999/xlink" x="0px" y="0px"
	 viewBox="0 0 256 256" style="enable-background:new 0 0 256 256;" xml:space="preserve">
<style type="text/css">
	.st0{display:none;}
	.st1{display:inline;fill:#FFE1E1;}
	.st2{fill:#FF7F4D;}
	.st3{fill:#4A4E59;}
	.st4{fill:#DCEFF9;}
	.st5{fill:#C3DEEA;}
	.st6{fill:#F9F9F9;}
	.st7{fill:#EA5066;}
	.st8{fill:#EDEDED;}
	.st9{fill:#FFBB33;}
	.st10{fill:#7DC1F4;}
	.st11{fill:#BED366;}
	.st12{fill:#FFFFFF;}
	.st13{fill:#FFB948;}
	.st14{fill:#BEC3CE;}
	.st15{fill:#FF9D33;}
	.st16{fill:#C1CFEA;}
	.st17{fill:#A6E1FF;}
	.st18{fill:#EFA31D;}
	.st19{fill:#90CEF4;}
</style>
<g id="Layer_2" class="st0">
	<rect class="st1" width="256" height="256"/>
</g>
<g id="Layer_1">
	<g>
		
			<ellipse transform="matrix(0.7071 -0.7071 0.7071 0.7071 -24.0555 147.0684)" class="st2" cx="165.5" cy="102.57" rx="30.82" ry="30.82"/>
		<path class="st3" d="M187.55,130.14c-1.28,0-2.57-0.49-3.54-1.47c-1.95-1.96-1.94-5.12,0.01-7.07c4.98-4.96,7.73-11.57,7.73-18.6
			c0-14.47-11.78-26.25-26.25-26.25c-11.15,0-21.11,7.07-24.79,17.59c-0.91,2.61-3.76,3.98-6.37,3.07
			c-2.61-0.91-3.98-3.76-3.07-6.37c5.08-14.53,18.83-24.29,34.23-24.29c19.99,0,36.25,16.26,36.25,36.25
			c0,9.71-3.79,18.83-10.67,25.69C190.1,129.66,188.83,130.14,187.55,130.14z"/>
		<path class="st3" d="M165.5,60.5c-2.07,0-3.75-1.68-3.75-3.75v-2.5c0-2.07,1.68-3.75,3.75-3.75c2.07,0,3.75,1.68,3.75,3.75v2.5
			C169.25,58.82,167.57,60.5,165.5,60.5z"/>
		<path class="st3" d="M142.38,66.7c-1.3,0-2.56-0.67-3.25-1.88l-1.25-2.16c-1.04-1.79-0.42-4.09,1.37-5.12
			c1.8-1.03,4.09-0.42,5.12,1.37l1.25,2.16c1.04,1.79,0.42,4.09-1.37,5.12C143.66,66.53,143.01,66.7,142.38,66.7z"/>
		<path class="st3" d="M125.44,83.63c-0.64,0-1.28-0.16-1.87-0.5l-2.17-1.25c-1.79-1.04-2.41-3.33-1.37-5.12
			c1.04-1.79,3.33-2.41,5.12-1.37l2.17,1.25c1.79,1.04,2.41,3.33,1.37,5.12C128,82.95,126.74,83.63,125.44,83.63z"/>
		<path class="st3" d="M207.71,131.13c-0.64,0-1.28-0.16-1.87-0.5l-2.16-1.25c-1.79-1.04-2.41-3.33-1.37-5.12
			c1.04-1.79,3.33-2.41,5.12-1.37l2.16,1.25c1.79,1.04,2.41,3.33,1.37,5.12C210.27,130.45,209.01,131.13,207.71,131.13z"/>
		<path class="st3" d="M214.25,106.75h-2.5c-2.07,0-3.75-1.68-3.75-3.75s1.68-3.75,3.75-3.75h2.5c2.07,0,3.75,1.68,3.75,3.75
			S216.32,106.75,214.25,106.75z"/>
		<path class="st3" d="M205.56,83.63c-1.3,0-2.56-0.67-3.25-1.88c-1.04-1.79-0.42-4.09,1.37-5.12l2.16-1.25
			c1.79-1.04,4.09-0.42,5.12,1.37c1.04,1.79,0.42,4.09-1.37,5.12l-2.16,1.25C206.84,83.46,206.19,83.63,205.56,83.63z"/>
		<path class="st3" d="M188.62,66.7c-0.64,0-1.28-0.16-1.87-0.5c-1.79-1.04-2.41-3.33-1.37-5.12l1.25-2.16
			c1.04-1.79,3.33-2.41,5.12-1.37c1.79,1.04,2.41,3.33,1.37,5.12l-1.25,2.16C191.18,66.02,189.92,66.7,188.62,66.7z"/>
		<g>
			<path class="st6" d="M166.46,200.42c21.61,0,39.12-17.59,39.12-39.29c0-21.7-17.51-39.29-39.12-39.29c-1.9,0-3.76,0.18-5.59,0.45
				c-5.63-18.45-22.72-31.88-42.94-31.88c-24.8,0-44.91,20.19-44.91,45.1c0,0.71,0.07,1.4,0.11,2.11
				c-16.7,0.66-30.04,14.43-30.04,31.37c0,17.36,14.01,31.43,31.3,31.43H166.46z"/>
			<path class="st8" d="M166.46,181.67H74.38c-14.03,0-25.9-9.27-29.88-22.04c-0.92,2.96-1.42,6.1-1.42,9.36
				c0,17.36,14.01,31.43,31.3,31.43h92.08c21.61,0,39.12-17.59,39.12-39.29c0-3.23-0.4-6.37-1.13-9.38
				C200.26,168.93,184.85,181.67,166.46,181.67z"/>
			<path class="st3" d="M166.38,205.5H74.3c-20.01,0-36.3-16.34-36.3-36.43c0-17.96,12.83-32.86,29.99-35.85
				c1.24-26.53,23.13-47.73,49.85-47.73c20.69,0,38.83,12.49,46.35,31.49c0.75-0.04,1.47-0.07,2.18-0.07
				c24.33,0,44.12,19.87,44.12,44.29C210.5,185.63,190.71,205.5,166.38,205.5z M117.85,95.5c-22.01,0-39.91,17.99-39.91,40.1
				c0,0.34,0.03,0.68,0.05,1.02c0.02,0.28,0.04,0.57,0.05,0.85c0.06,1.33-0.41,2.63-1.31,3.61c-0.9,0.98-2.16,1.56-3.49,1.62
				C59.09,143.27,48,154.85,48,169.07c0,14.57,11.8,26.43,26.3,26.43h92.08c18.81,0,34.12-15.38,34.12-34.29
				s-15.31-34.29-34.12-34.29c-1.46,0-3.01,0.13-4.88,0.4c-2.44,0.35-4.78-1.13-5.5-3.49C150.83,106.89,135.5,95.5,117.85,95.5z"/>
		</g>
	</g>
</g>
</svg>
