<?xml version="1.0" encoding="utf-8"?>
<!-- Generator: Adobe Illustrator 23.0.3, SVG Export Plug-In . SVG Version: 6.00 Build 0)  -->
<svg version="1.1" xmlns="http://www.w3.org/2000/svg" xmlns:xlink="http://www.w3.org/1999/xlink" x="0px" y="0px"
	 viewBox="0 0 256 256" style="enable-background:new 0 0 256 256;" xml:space="preserve">
<style type="text/css">
	.st0{display:none;}
	.st1{display:inline;fill:#FFE1E1;}
	.st2{fill:#FF7F4D;}
	.st3{fill:#4A4E59;}
	.st4{fill:#DCEFF9;}
	.st5{fill:#C3DEEA;}
	.st6{fill:#F9F9F9;}
	.st7{fill:#EA5066;}
	.st8{fill:#EDEDED;}
	.st9{fill:#FFBB33;}
	.st10{fill:#7DC1F4;}
	.st11{fill:#BED366;}
	.st12{fill:#FFFFFF;}
	.st13{fill:#FFB948;}
	.st14{fill:#BEC3CE;}
	.st15{fill:#FF9D33;}
	.st16{fill:#C1CFEA;}
	.st17{fill:#A6E1FF;}
	.st18{fill:#EFA31D;}
	.st19{fill:#90CEF4;}
</style>
<g id="Layer_2" class="st0">
	<rect class="st1" width="256" height="256"/>
</g>
<g id="Layer_1">
	<g>
		<path class="st2" d="M111.16,182.86c-20.5-7-35.25-26.43-35.25-49.3c0-28.76,23.32-52.08,52.08-52.08
			c28.76,0,52.08,23.32,52.08,52.08c0,4.86-0.67,9.56-1.91,14.02L111.16,182.86z"/>
		<path class="st3" d="M111.16,187.3c-0.54,0-1.08-0.09-1.62-0.27c-23.11-7.89-38.63-29.6-38.63-54.03
			c0-31.48,25.61-57.08,57.08-57.08c31.48,0,57.08,25.61,57.08,57.08c0,5.22-0.7,10.39-2.09,15.37c-0.74,2.66-3.5,4.21-6.16,3.47
			c-2.66-0.74-4.21-3.5-3.47-6.16c1.14-4.11,1.73-8.37,1.73-12.68c0-25.96-21.12-47.08-47.08-47.08
			c-25.96,0-47.08,21.12-47.08,47.08c0,20.15,12.8,38.06,31.86,44.57c2.61,0.89,4.01,3.73,3.12,6.35
			C115.19,186,113.24,187.3,111.16,187.3z"/>
		<path class="st3" d="M128,65.92c-2.76,0-5-2.24-5-5v-9.17c0-2.76,2.24-5,5-5c2.76,0,5,2.24,5,5v9.17
			C133,63.68,130.76,65.92,128,65.92z"/>
		<path class="st3" d="M91.96,75.57c-1.73,0-3.41-0.9-4.33-2.5l-4.58-7.94c-1.38-2.39-0.56-5.45,1.83-6.83
			c2.39-1.38,5.45-0.56,6.83,1.83l4.58,7.94c1.38,2.39,0.56,5.45-1.83,6.83C93.67,75.36,92.81,75.57,91.96,75.57z"/>
		<path class="st3" d="M65.57,101.96c-0.85,0-1.71-0.22-2.5-0.67l-7.94-4.58c-2.39-1.38-3.21-4.44-1.83-6.83
			c1.38-2.39,4.44-3.21,6.83-1.83l7.94,4.58c2.39,1.38,3.21,4.44,1.83,6.83C68.98,101.06,67.3,101.96,65.57,101.96z"/>
		<path class="st3" d="M55.92,138h-9.17c-2.76,0-5-2.24-5-5s2.24-5,5-5h9.17c2.76,0,5,2.24,5,5S58.68,138,55.92,138z"/>
		<path class="st3" d="M209.25,138h-9.17c-2.76,0-5-2.24-5-5s2.24-5,5-5h9.17c2.76,0,5,2.24,5,5S212.01,138,209.25,138z"/>
		<path class="st3" d="M57.64,178.63c-1.73,0-3.41-0.9-4.33-2.5c-1.38-2.39-0.56-5.45,1.83-6.83l7.94-4.58
			c2.39-1.38,5.45-0.56,6.83,1.83c1.38,2.39,0.56,5.45-1.83,6.83l-7.94,4.58C59.35,178.41,58.49,178.63,57.64,178.63z"/>
		<path class="st3" d="M190.43,101.96c-1.73,0-3.41-0.9-4.33-2.5c-1.38-2.39-0.56-5.45,1.83-6.83l7.94-4.58
			c2.39-1.38,5.45-0.56,6.83,1.83c1.38,2.39,0.56,5.45-1.83,6.83l-7.94,4.58C192.14,101.74,191.28,101.96,190.43,101.96z"/>
		<path class="st3" d="M87.37,208.37c-0.85,0-1.71-0.22-2.5-0.67c-2.39-1.38-3.21-4.44-1.83-6.83l4.58-7.94
			c1.38-2.39,4.44-3.21,6.83-1.83c2.39,1.38,3.21,4.44,1.83,6.83l-4.58,7.94C90.78,207.47,89.1,208.37,87.37,208.37z"/>
		<path class="st3" d="M164.04,75.57c-0.85,0-1.71-0.22-2.5-0.67c-2.39-1.38-3.21-4.44-1.83-6.83l4.58-7.94
			c1.38-2.39,4.44-3.21,6.83-1.83c2.39,1.38,3.21,4.44,1.83,6.83l-4.58,7.94C167.44,74.68,165.76,75.57,164.04,75.57z"/>
		<path class="st6" d="M186.08,204.81c12.8,0,23.17-10.39,23.17-23.21c0-12.82-10.37-23.21-23.17-23.21c-1.13,0-2.23,0.11-3.31,0.26
			c-3.33-10.9-13.46-18.84-25.43-18.84c-14.69,0-26.6,11.93-26.6,26.65c0,0.42,0.04,0.83,0.06,1.24c-9.89,0.39-17.8,8.53-17.8,18.53
			c0,10.26,8.3,18.57,18.54,18.57H186.08z"/>
		<path class="st8" d="M186.08,189.25h-54.54c-7.57,0-14.07-4.55-16.95-11.06c-1.01,2.29-1.59,4.82-1.59,7.49
			c0,10.26,8.3,18.57,18.54,18.57h54.54c12.8,0,23.17-10.39,23.17-23.21c0-2.63-0.46-5.14-1.26-7.5
			C204.87,182.67,196.25,189.25,186.08,189.25z"/>
		<path class="st3" d="M186.08,209.25h-54.54c-12.98,0-23.54-10.57-23.54-23.57c0-11.07,7.55-20.34,17.88-22.87
			c1.56-16.01,15.07-28.56,31.45-28.56c12.61,0,23.73,7.32,28.79,18.57c15.52,0.02,28.13,12.67,28.13,28.21
			C214.25,196.59,201.61,209.25,186.08,209.25z M157.33,144.25c-11.91,0-21.6,9.71-21.6,21.65c0,0.15,0.01,0.31,0.02,0.46l0.03,0.55
			c0.06,1.33-0.41,2.63-1.31,3.61c-0.9,0.98-2.16,1.56-3.49,1.62c-7.29,0.29-12.99,6.24-12.99,13.54c0,7.48,6.07,13.57,13.54,13.57
			h54.54c10.02,0,18.17-8.17,18.17-18.21s-8.15-18.21-18.17-18.21c-0.76,0-1.59,0.07-2.6,0.21c-2.44,0.35-4.77-1.13-5.49-3.49
			C175.19,150.4,166.89,144.25,157.33,144.25z"/>
	</g>
</g>
</svg>
