<?xml version="1.0" encoding="utf-8"?>
<!-- Generator: Adobe Illustrator 23.0.3, SVG Export Plug-In . SVG Version: 6.00 Build 0)  -->
<svg version="1.1" xmlns="http://www.w3.org/2000/svg" xmlns:xlink="http://www.w3.org/1999/xlink" x="0px" y="0px"
	 viewBox="0 0 256 256" style="enable-background:new 0 0 256 256;" xml:space="preserve">
<style type="text/css">
	.st0{display:none;}
	.st1{display:inline;fill:#FFE1E1;}
	.st2{fill:#FF7F4D;}
	.st3{fill:#4A4E59;}
	.st4{fill:#DCEFF9;}
	.st5{fill:#C3DEEA;}
	.st6{fill:#F9F9F9;}
	.st7{fill:#EA5066;}
	.st8{fill:#EDEDED;}
	.st9{fill:#FFBB33;}
	.st10{fill:#7DC1F4;}
	.st11{fill:#BED366;}
	.st12{fill:#FFFFFF;}
	.st13{fill:#FFB948;}
	.st14{fill:#BEC3CE;}
	.st15{fill:#FF9D33;}
	.st16{fill:#C1CFEA;}
	.st17{fill:#A6E1FF;}
	.st18{fill:#EFA31D;}
	.st19{fill:#90CEF4;}
</style>
<g id="Layer_2" class="st0">
	<rect class="st1" width="256" height="256"/>
</g>
<g id="Layer_1">
	<g>
		<path class="st4" d="M199.9,136.14c10.93-4.14,18.7-14.74,18.7-27.16c0-16.03-12.93-29.02-28.89-29.02
			c-1.41,0-2.78,0.14-4.13,0.33c-4.16-13.63-16.78-23.54-31.71-23.54c-11.5,0-21.64,5.88-27.58,14.81L199.9,136.14z"/>
		<path class="st4" d="M159.2,179.25c21.61,0,39.12-17.59,39.12-39.29c0-21.7-17.51-39.29-39.12-39.29c-1.9,0-3.76,0.18-5.59,0.45
			c-5.63-18.45-22.72-31.88-42.94-31.88c-24.8,0-44.91,20.19-44.91,45.1c0,0.71,0.07,1.4,0.11,2.11
			c-16.7,0.66-30.04,14.43-30.04,31.37c0,17.36,14.01,31.43,31.3,31.43H159.2z"/>
		<path class="st5" d="M159.2,160.5H67.11c-14.03,0-25.9-9.27-29.88-22.04c-0.92,2.96-1.42,6.1-1.42,9.36
			c0,17.36,14.01,31.43,31.3,31.43h92.08c21.61,0,39.12-17.59,39.12-39.29c0-3.23-0.4-6.37-1.13-9.38
			C193,147.76,177.58,160.5,159.2,160.5z"/>
		<g>
			<path class="st3" d="M200.55,141.15c-2.02,0-3.92-1.23-4.68-3.23c-0.98-2.58,0.32-5.47,2.91-6.45
				c9.25-3.5,15.47-12.54,15.47-22.49c0-13.24-10.72-24.02-23.89-24.02c-1.01,0-2.1,0.09-3.42,0.28c-2.44,0.35-4.78-1.13-5.5-3.49
				c-3.65-11.96-14.47-20-26.93-20c-9.42,0-18.17,4.7-23.42,12.58c-1.53,2.3-4.63,2.92-6.93,1.39c-2.3-1.53-2.92-4.64-1.39-6.93
				c7.11-10.67,18.98-17.04,31.75-17.04c15.51,0,29.14,9.18,35.09,23.22c0.25-0.01,0.5-0.01,0.75-0.01
				c18.69,0,33.89,15.26,33.89,34.02c0,14.08-8.81,26.87-21.93,31.84C201.74,141.04,201.14,141.15,200.55,141.15z"/>
		</g>
		<path class="st3" d="M160.13,184.25c-2.76,0-5-2.24-5-5s2.24-5,5-5c18.81,0,34.12-15.38,34.12-34.29
			c0-18.91-15.31-34.29-34.12-34.29c-1.46,0-3.01,0.13-4.88,0.4c-2.45,0.35-4.78-1.13-5.5-3.49c-5.17-16.95-20.5-28.33-38.16-28.33
			c-22.01,0-39.91,17.99-39.91,40.1c0,0.35,0.03,0.68,0.05,1.02c0.02,0.28,0.04,0.56,0.05,0.85c0.06,1.33-0.41,2.63-1.31,3.61
			c-0.9,0.98-2.16,1.56-3.49,1.62c-14.16,0.56-25.24,12.15-25.24,26.37c0,14.57,11.8,26.43,26.3,26.43c2.76,0,5,2.24,5,5
			s-2.24,5-5,5c-20.01,0-36.3-16.34-36.3-36.43c0-17.96,12.83-32.86,29.99-35.85c1.24-26.53,23.13-47.72,49.85-47.72
			c20.69,0,38.83,12.49,46.35,31.49c0.75-0.04,1.47-0.07,2.18-0.07c24.33,0,44.12,19.87,44.12,44.29
			C204.25,164.38,184.46,184.25,160.13,184.25z"/>
		<g>
			<path class="st3" d="M113.6,214.25c-2.07,0-3.75-1.68-3.75-3.75v-40c0-2.07,1.68-3.75,3.75-3.75c2.07,0,3.75,1.68,3.75,3.75v40
				C117.35,212.57,115.67,214.25,113.6,214.25z"/>
			<path class="st3" d="M138.6,226.75c-2.07,0-3.75-1.68-3.75-3.75v-52.5c0-2.07,1.68-3.75,3.75-3.75c2.07,0,3.75,1.68,3.75,3.75
				V223C142.35,225.07,140.67,226.75,138.6,226.75z"/>
			<path class="st3" d="M88.6,201.75c-2.07,0-3.75-1.68-3.75-3.75v-27.5c0-2.07,1.68-3.75,3.75-3.75c2.07,0,3.75,1.68,3.75,3.75V198
				C92.35,200.07,90.67,201.75,88.6,201.75z"/>
			<path class="st3" d="M88.6,226.75c-2.07,0-3.75-1.68-3.75-3.75v-8.75c0-2.07,1.68-3.75,3.75-3.75c2.07,0,3.75,1.68,3.75,3.75V223
				C92.35,225.07,90.67,226.75,88.6,226.75z"/>
		</g>
	</g>
</g>
</svg>
