<?xml version="1.0" encoding="utf-8"?>
<!-- Generator: Adobe Illustrator 23.0.3, SVG Export Plug-In . SVG Version: 6.00 Build 0)  -->
<svg version="1.1" xmlns="http://www.w3.org/2000/svg" xmlns:xlink="http://www.w3.org/1999/xlink" x="0px" y="0px"
	 viewBox="0 0 256 256" style="enable-background:new 0 0 256 256;" xml:space="preserve">
<style type="text/css">
	.st0{display:none;}
	.st1{display:inline;fill:#FFE1E1;}
	.st2{fill:#FF7F4D;}
	.st3{fill:#4A4E59;}
	.st4{fill:#DCEFF9;}
	.st5{fill:#C3DEEA;}
	.st6{fill:#F9F9F9;}
	.st7{fill:#EA5066;}
	.st8{fill:#EDEDED;}
	.st9{fill:#FFBB33;}
	.st10{fill:#7DC1F4;}
	.st11{fill:#BED366;}
	.st12{fill:#FFFFFF;}
	.st13{fill:#FFB948;}
	.st14{fill:#BEC3CE;}
	.st15{fill:#FF9D33;}
	.st16{fill:#C1CFEA;}
	.st17{fill:#A6E1FF;}
	.st18{fill:#EFA31D;}
	.st19{fill:#90CEF4;}
</style>
<g id="Layer_2" class="st0">
	<rect class="st1" width="256" height="256"/>
</g>
<g id="Layer_1">
	<g>
		
			<ellipse transform="matrix(0.2008 -0.9796 0.9796 0.2008 -23.0952 227.692)" class="st2" cx="128" cy="128" rx="52.08" ry="52.08"/>
		<path class="st3" d="M128,185.08c-31.48,0-57.08-25.61-57.08-57.08S96.52,70.92,128,70.92c31.48,0,57.08,25.61,57.08,57.08
			S159.47,185.08,128,185.08z M128,80.92c-25.96,0-47.08,21.12-47.08,47.08s21.12,47.08,47.08,47.08
			c25.96,0,47.08-21.12,47.08-47.08S153.96,80.92,128,80.92z"/>
		<path class="st3" d="M128,60.92c-2.76,0-5-2.24-5-5v-9.17c0-2.76,2.24-5,5-5c2.76,0,5,2.24,5,5v9.17
			C133,58.68,130.76,60.92,128,60.92z"/>
		<path class="st3" d="M128,214.25c-2.76,0-5-2.24-5-5v-9.17c0-2.76,2.24-5,5-5c2.76,0,5,2.24,5,5v9.17
			C133,212.01,130.76,214.25,128,214.25z"/>
		<path class="st3" d="M91.96,70.58c-1.73,0-3.41-0.9-4.33-2.5l-4.58-7.94c-1.38-2.39-0.56-5.45,1.83-6.83
			c2.39-1.38,5.45-0.56,6.83,1.83l4.58,7.94c1.38,2.39,0.56,5.45-1.83,6.83C93.67,70.36,92.81,70.58,91.96,70.58z"/>
		<path class="st3" d="M168.63,203.37c-1.73,0-3.41-0.9-4.33-2.5l-4.58-7.94c-1.38-2.39-0.56-5.45,1.83-6.83
			c2.39-1.38,5.45-0.56,6.83,1.83l4.58,7.94c1.38,2.39,0.56,5.45-1.83,6.83C170.34,203.15,169.48,203.37,168.63,203.37z"/>
		<path class="st3" d="M65.57,96.96c-0.85,0-1.71-0.22-2.5-0.67l-7.94-4.58c-2.39-1.38-3.21-4.44-1.83-6.83
			c1.38-2.39,4.44-3.21,6.83-1.83l7.94,4.58c2.39,1.38,3.21,4.44,1.83,6.83C68.98,96.06,67.3,96.96,65.57,96.96z"/>
		<path class="st3" d="M198.36,173.63c-0.85,0-1.71-0.22-2.5-0.67l-7.94-4.58c-2.39-1.38-3.21-4.44-1.83-6.83
			c1.38-2.39,4.44-3.21,6.83-1.83l7.94,4.58c2.39,1.38,3.21,4.44,1.83,6.83C201.77,172.73,200.09,173.63,198.36,173.63z"/>
		<path class="st3" d="M55.92,133h-9.17c-2.76,0-5-2.24-5-5c0-2.76,2.24-5,5-5h9.17c2.76,0,5,2.24,5,5
			C60.92,130.76,58.68,133,55.92,133z"/>
		<path class="st3" d="M209.25,133h-9.17c-2.76,0-5-2.24-5-5c0-2.76,2.24-5,5-5h9.17c2.76,0,5,2.24,5,5
			C214.25,130.76,212.01,133,209.25,133z"/>
		<path class="st3" d="M57.64,173.63c-1.73,0-3.41-0.9-4.34-2.5c-1.38-2.39-0.56-5.45,1.83-6.83l7.94-4.58
			c2.39-1.38,5.45-0.56,6.83,1.83c1.38,2.39,0.56,5.45-1.83,6.83l-7.94,4.58C59.35,173.41,58.49,173.63,57.64,173.63z"/>
		<path class="st3" d="M190.43,96.96c-1.73,0-3.41-0.9-4.33-2.5c-1.38-2.39-0.56-5.45,1.83-6.83l7.94-4.58
			c2.39-1.38,5.45-0.56,6.83,1.83c1.38,2.39,0.56,5.45-1.83,6.83l-7.94,4.58C192.14,96.74,191.28,96.96,190.43,96.96z"/>
		<path class="st3" d="M87.37,203.37c-0.85,0-1.71-0.22-2.5-0.67c-2.39-1.38-3.21-4.44-1.83-6.83l4.58-7.94
			c1.38-2.39,4.44-3.21,6.83-1.83c2.39,1.38,3.21,4.44,1.83,6.83l-4.58,7.94C90.78,202.47,89.1,203.37,87.37,203.37z"/>
		<path class="st3" d="M164.04,70.58c-0.85,0-1.71-0.22-2.5-0.67c-2.39-1.38-3.21-4.44-1.83-6.83l4.58-7.94
			c1.38-2.39,4.44-3.21,6.83-1.83c2.39,1.38,3.21,4.44,1.83,6.83l-4.58,7.94C167.44,69.68,165.77,70.58,164.04,70.58z"/>
	</g>
</g>
</svg>
