<?xml version="1.0" encoding="utf-8"?>
<!-- Generator: Adobe Illustrator 23.0.3, SVG Export Plug-In . SVG Version: 6.00 Build 0)  -->
<svg version="1.1" xmlns="http://www.w3.org/2000/svg" xmlns:xlink="http://www.w3.org/1999/xlink" x="0px" y="0px"
	 viewBox="0 0 256 256" style="enable-background:new 0 0 256 256;" xml:space="preserve">
<style type="text/css">
	.st0{display:none;}
	.st1{display:inline;fill:#FFE1E1;}
	.st2{fill:#FF7F4D;}
	.st3{fill:#4A4E59;}
	.st4{fill:#DCEFF9;}
	.st5{fill:#C3DEEA;}
	.st6{fill:#F9F9F9;}
	.st7{fill:#EA5066;}
	.st8{fill:#EDEDED;}
	.st9{fill:#FFBB33;}
	.st10{fill:#7DC1F4;}
	.st11{fill:#BED366;}
	.st12{fill:#FFFFFF;}
	.st13{fill:#FFB948;}
	.st14{fill:#BEC3CE;}
	.st15{fill:#FF9D33;}
	.st16{fill:#C1CFEA;}
	.st17{fill:#A6E1FF;}
	.st18{fill:#EFA31D;}
	.st19{fill:#90CEF4;}
</style>
<g id="Layer_2" class="st0">
	<rect class="st1" width="256" height="256"/>
</g>
<g id="Layer_1">
	<g>
		<g>
			<g>
				<circle class="st2" cx="179.88" cy="99.87" r="30.82"/>
				<path class="st3" d="M201.92,127.44c-1.28,0-2.57-0.49-3.54-1.47c-1.95-1.96-1.94-5.12,0.02-7.07
					c4.98-4.96,7.73-11.57,7.73-18.6c0-14.47-11.78-26.25-26.25-26.25c-11.15,0-21.11,7.07-24.79,17.59
					c-0.91,2.61-3.76,3.98-6.37,3.07c-2.61-0.91-3.98-3.76-3.07-6.37c5.08-14.53,18.83-24.29,34.23-24.29
					c19.99,0,36.25,16.26,36.25,36.25c0,9.71-3.79,18.84-10.67,25.69C204.48,126.95,203.2,127.44,201.92,127.44z"/>
				<path class="st3" d="M179.88,57.8c-2.07,0-3.75-1.68-3.75-3.75v-2.5c0-2.07,1.68-3.75,3.75-3.75c2.07,0,3.75,1.68,3.75,3.75v2.5
					C183.63,56.12,181.95,57.8,179.88,57.8z"/>
				<path class="st3" d="M156.75,63.99c-1.3,0-2.56-0.67-3.25-1.88l-1.25-2.17c-1.04-1.79-0.42-4.09,1.37-5.12
					c1.8-1.03,4.09-0.42,5.12,1.37l1.25,2.17c1.04,1.79,0.42,4.09-1.37,5.12C158.03,63.83,157.39,63.99,156.75,63.99z"/>
				<path class="st3" d="M139.82,80.92c-0.64,0-1.28-0.16-1.87-0.5l-2.16-1.25c-1.79-1.04-2.41-3.33-1.37-5.12
					c1.04-1.79,3.33-2.41,5.12-1.37l2.16,1.25c1.79,1.04,2.41,3.33,1.37,5.12C142.37,80.25,141.11,80.92,139.82,80.92z"/>
				<path class="st3" d="M222.09,128.42c-0.64,0-1.28-0.16-1.87-0.5l-2.17-1.25c-1.79-1.04-2.41-3.33-1.37-5.12
					c1.04-1.79,3.33-2.41,5.12-1.37l2.17,1.25c1.79,1.04,2.41,3.33,1.37,5.12C224.65,127.75,223.39,128.42,222.09,128.42z"/>
				<path class="st3" d="M228.63,104.05h-2.5c-2.07,0-3.75-1.68-3.75-3.75s1.68-3.75,3.75-3.75h2.5c2.07,0,3.75,1.68,3.75,3.75
					S230.7,104.05,228.63,104.05z"/>
				<path class="st3" d="M219.93,80.92c-1.3,0-2.56-0.67-3.25-1.88c-1.04-1.79-0.42-4.09,1.37-5.12l2.17-1.25
					c1.8-1.04,4.09-0.42,5.12,1.37c1.04,1.79,0.42,4.09-1.37,5.12l-2.17,1.25C221.21,80.76,220.57,80.92,219.93,80.92z"/>
				<path class="st3" d="M203,63.99c-0.64,0-1.28-0.16-1.87-0.5c-1.79-1.04-2.41-3.33-1.37-5.12L201,56.2
					c1.04-1.79,3.33-2.41,5.12-1.37c1.79,1.04,2.41,3.33,1.37,5.12l-1.25,2.17C205.55,63.32,204.29,63.99,203,63.99z"/>
			</g>
			<g>
				<g>
					<path class="st4" d="M47.98,137.19c-10.93-4.14-18.7-14.74-18.7-27.16c0-16.03,12.93-29.02,28.89-29.02
						c1.41,0,2.78,0.14,4.13,0.33C66.45,67.71,79.07,57.8,94,57.8c11.5,0,21.64,5.88,27.58,14.81L47.98,137.19z"/>
					<path class="st4" d="M88.68,180.3c-21.61,0-39.12-17.59-39.12-39.29c0-21.7,17.51-39.29,39.12-39.29c1.9,0,3.76,0.18,5.59,0.45
						c5.63-18.45,22.72-31.88,42.94-31.88c24.8,0,44.91,20.19,44.91,45.1c0,0.71-0.07,1.4-0.11,2.11
						c16.7,0.66,30.04,14.43,30.04,31.37c0,17.36-14.01,31.43-31.3,31.43H88.68z"/>
					<path class="st5" d="M88.68,161.55h92.08c14.03,0,25.9-9.27,29.88-22.04c0.92,2.96,1.42,6.1,1.42,9.36
						c0,17.36-14.01,31.43-31.3,31.43H88.68c-21.61,0-39.12-17.59-39.12-39.29c0-3.23,0.4-6.37,1.13-9.38
						C54.88,148.8,70.29,161.55,88.68,161.55z"/>
					<g>
						<path class="st3" d="M47.33,142.19c-0.59,0-1.19-0.1-1.77-0.32c-13.12-4.97-21.93-17.76-21.93-31.84
							c0-18.76,15.2-34.02,33.89-34.02c0.25,0,0.5,0,0.75,0.01C64.21,61.98,77.85,52.8,93.35,52.8c12.77,0,24.64,6.37,31.75,17.04
							c1.53,2.3,0.91,5.4-1.39,6.93c-2.3,1.53-5.4,0.91-6.93-1.39c-5.25-7.88-14-12.58-23.42-12.58c-12.46,0-23.28,8.04-26.93,20
							c-0.72,2.36-3.05,3.84-5.5,3.49c-1.32-0.19-2.41-0.28-3.42-0.28c-13.17,0-23.89,10.78-23.89,24.02
							c0,9.95,6.22,18.98,15.47,22.49c2.58,0.98,3.88,3.86,2.91,6.45C51.25,140.96,49.34,142.19,47.33,142.19z"/>
					</g>
					<path class="st3" d="M179.83,185.3c-2.76,0-5-2.24-5-5s2.24-5,5-5c14.5,0,26.3-11.86,26.3-26.43
						c0-14.22-11.09-25.81-25.24-26.37c-1.33-0.05-2.59-0.63-3.49-1.62c-0.9-0.98-1.37-2.28-1.31-3.61
						c0.01-0.28,0.03-0.57,0.05-0.85c0.02-0.34,0.05-0.68,0.05-1.02c0-22.11-17.9-40.1-39.91-40.1c-17.65,0-32.99,11.39-38.16,28.33
						c-0.72,2.36-3.05,3.84-5.5,3.49c-1.87-0.27-3.42-0.4-4.88-0.4c-18.81,0-34.12,15.38-34.12,34.29s15.31,34.29,34.12,34.29
						c2.76,0,5,2.24,5,5s-2.24,5-5,5c-24.33,0-44.12-19.87-44.12-44.29c0-24.42,19.79-44.29,44.12-44.29c0.72,0,1.44,0.02,2.18,0.07
						c7.52-19,25.66-31.49,46.35-31.49c26.73,0,48.62,21.2,49.85,47.72c17.16,2.99,29.99,17.89,29.99,35.85
						C216.13,168.95,199.84,185.3,179.83,185.3z"/>
				</g>
			</g>
		</g>
		<path class="st3" d="M104.21,225.7c-0.75,0-1.52-0.23-2.18-0.7c-1.69-1.2-2.08-3.55-0.87-5.23l34.41-48.17
			c1.2-1.68,3.54-2.07,5.23-0.87c1.68,1.2,2.08,3.55,0.87,5.23l-34.41,48.17C106.53,225.16,105.38,225.7,104.21,225.7z"/>
		<path class="st3" d="M150.09,194.73c-0.75,0-1.51-0.23-2.18-0.7c-1.69-1.2-2.08-3.55-0.87-5.23l12.28-17.2
			c1.2-1.68,3.54-2.07,5.23-0.87c1.68,1.2,2.08,3.55,0.87,5.23l-12.28,17.2C152.41,194.18,151.26,194.73,150.09,194.73z"/>
		<path class="st3" d="M135.15,215.64c-0.75,0-1.51-0.23-2.18-0.7c-1.69-1.2-2.08-3.55-0.87-5.23l6.36-8.91
			c1.2-1.68,3.54-2.07,5.23-0.87c1.68,1.2,2.08,3.55,0.87,5.23l-6.36,8.91C137.47,215.1,136.32,215.64,135.15,215.64z"/>
		<path class="st3" d="M96.12,203.78c-0.75,0-1.52-0.23-2.18-0.7c-1.69-1.2-2.08-3.55-0.87-5.23l18.75-26.25
			c1.2-1.68,3.55-2.08,5.23-0.87c1.69,1.2,2.08,3.55,0.87,5.23l-18.75,26.25C98.44,203.24,97.29,203.78,96.12,203.78z"/>
	</g>
</g>
</svg>
